<svg width="332" height="66" viewBox="0 0 332 66" fill="none" xmlns="http://www.w3.org/2000/svg">
<g clip-path="url(#clip0_2407_6726)">
<path d="M331.638 40.7602C326.145 42.1918 324.623 43.8719 323.378 50.0823C323.275 50.5987 322.546 50.5987 322.443 50.0823C321.199 43.8719 319.677 42.1853 314.183 40.7602C313.706 40.636 313.706 39.943 314.183 39.8188C319.677 38.3872 321.199 36.7071 322.443 30.4967C322.546 29.9803 323.275 29.9803 323.378 30.4967C324.623 36.7071 326.145 38.3937 331.638 39.8188C332.116 39.943 332.116 40.636 331.638 40.7602Z" fill="#13A4A0"/>
<path d="M319.535 58.9268C316.35 59.8355 315.286 60.9926 314.486 64.5554C314.377 65.0522 313.674 65.0522 313.564 64.5554C312.771 60.9926 311.707 59.8355 308.515 58.9268C308.064 58.7961 308.064 58.1358 308.515 58.0051C311.701 57.0964 312.765 55.9393 313.564 52.3765C313.674 51.8797 314.377 51.8797 314.486 52.3765C315.279 55.9393 316.343 57.0964 319.535 58.0051C319.987 58.1358 319.987 58.7961 319.535 58.9268Z" fill="#13A4A0"/>
<path d="M23.4587 54.2719C17.9649 52.8403 16.4431 51.1602 15.1986 44.9498C15.0954 44.4334 14.3667 44.4334 14.2636 44.9498C13.0191 51.1602 11.4973 52.8468 6.00338 54.2719C5.52622 54.3961 5.52622 55.0891 6.00338 55.2133C11.4973 56.645 13.0191 58.325 14.2636 64.5354C14.3667 65.0519 15.0954 65.0519 15.1986 64.5354C16.4431 58.325 17.9649 56.6384 23.4587 55.2133C23.9359 55.0891 23.9359 54.3961 23.4587 54.2719Z" fill="#13A4A0"/>
<path d="M11.3556 36.1047C8.1702 35.196 7.10624 34.0389 6.30666 30.4761C6.19704 29.9793 5.49419 29.9793 5.38457 30.4761C4.59143 34.0389 3.52748 35.196 0.335602 36.1047C-0.115774 36.2354 -0.115774 36.8957 0.335602 37.0265C3.52103 37.9351 4.58499 39.0922 5.38457 42.655C5.49419 43.1519 6.19704 43.1519 6.30666 42.655C7.0998 39.0922 8.16375 37.9351 11.3556 37.0265C11.807 36.8957 11.807 36.2354 11.3556 36.1047Z" fill="#13A4A0"/>
<path d="M63.7602 16.9114C66.0364 15.2967 67.5582 13.2441 68.2933 10.8122H72.1558C72.1365 13.0283 72.0011 14.3554 71.756 14.7542C71.5174 15.1529 70.9564 15.3556 70.0859 15.3556C69.6217 15.3556 69.1509 15.3294 68.648 15.2837H68.5641L68.3836 16.6826L68.4674 16.6957C69.0929 16.7676 69.6281 16.8068 70.0601 16.8068C71.5174 16.8068 72.5298 16.3623 73.0715 15.4863C73.381 14.9699 73.5744 14.0743 73.6518 12.8191C73.6711 12.453 73.6711 11.564 73.6711 10.0931V9.36747H68.6222C68.6867 9.00792 68.7382 8.63529 68.7898 8.28228H73.0263V0.65332H63.5023V8.27574H67.2487C67.1971 8.64837 67.1455 9.00792 67.0811 9.36093H62.9155V10.8122H66.7006C66.0364 12.7538 64.7339 14.4208 62.8381 15.7674L62.7607 15.8197L63.6893 16.9572L63.7538 16.9114H63.7602ZM68.9639 3.75851V2.03268H71.5755V3.75851H68.9639ZM71.5755 5.13787V6.90292H68.9639V5.13787H71.5755ZM67.5066 5.13787V6.90292H64.9725V5.13787H67.5066ZM67.5066 2.03268V3.75851H64.9725V2.03268H67.5066Z" fill="#343535"/>
<path d="M87.7609 2.97469C86.8388 2.22291 85.7103 1.84375 84.4207 1.84375C83.131 1.84375 81.9897 2.21637 81.0998 2.95508C80.1842 3.70033 79.5716 4.72014 79.2298 6.08642C79.0042 6.97549 78.8945 7.94953 78.8945 8.98896C78.8945 10.0284 79.0042 10.9697 79.2298 11.8392C79.765 13.8919 80.7774 14.9313 82.2476 14.9313C83.9242 14.9313 84.8527 13.8461 85.0139 11.7084C85.1558 9.65576 85.1622 5.64843 85.0332 2.90932V2.82434L83.4534 2.88317V2.96816C83.5888 5.65496 83.5824 9.60346 83.4405 11.5973C83.3503 12.8198 82.9505 13.4343 82.2541 13.4343C81.6092 13.4343 81.1127 12.774 80.771 11.4731C80.5775 10.7409 80.4808 9.92378 80.4808 8.95627C80.4808 7.98876 80.5775 7.15853 80.771 6.40675C81.2868 4.35405 82.5184 3.31463 84.4271 3.31463C85.3621 3.31463 86.123 3.57612 86.7614 4.11871C87.3997 4.6613 87.8124 5.40001 88.0252 6.39367C88.1929 7.11277 88.2767 7.92992 88.2767 8.8909C88.2767 10.0415 88.1606 11.107 87.9285 12.068C87.619 13.3754 87.0644 14.5064 86.2842 15.4281L86.2262 15.5L87.5029 16.4022L87.5545 16.3434C88.4766 15.2255 89.1085 13.9311 89.489 12.3818C89.7405 11.3685 89.863 10.1853 89.863 8.87129C89.863 7.88416 89.7727 6.94934 89.5857 6.09296C89.2826 4.75936 88.6765 3.70686 87.7737 2.96162L87.7609 2.97469Z" fill="#343535"/>
<path d="M106.538 9.29553V7.81158H101.508C101.379 7.38012 101.237 6.9552 101.076 6.55643C102.514 5.38626 103.784 4.00036 104.861 2.43143C105.08 2.04573 105.197 1.75809 105.306 1.29395H96.1948V2.7779H102.656C101.901 3.69311 101.179 4.48412 100.373 5.13784C99.6252 5.74581 99.1094 6.03345 99.1094 6.03345C99.4769 6.71332 99.651 7.04018 99.8638 7.81158H94.7891V9.29553H100.244C100.393 10.0604 100.464 10.7926 100.464 11.5443C100.464 12.9695 100.264 14.1331 99.8638 14.996C99.722 15.3163 99.4576 15.4732 99.0771 15.4732C98.8257 15.4732 98.5613 15.4079 98.3098 15.2836L98.2389 15.251L97.4651 16.5453L97.5489 16.5846C98.0454 16.833 98.5484 16.9572 99.0771 16.9572C100.18 16.9572 100.947 16.4734 101.347 15.519C101.805 14.3815 102.037 13.0414 102.037 11.5247C102.037 10.7337 101.979 10.0016 101.856 9.28899H106.538V9.29553Z" fill="#343535"/>
<path d="M116.12 10.0412C115.508 9.00836 114.843 8.08661 114.147 7.28907L114.095 7.23023L112.825 8.21082L112.883 8.28273C114.618 10.2439 115.946 12.715 116.958 15.8267L116.984 15.9052L118.558 15.4541L118.532 15.3691C118.1 14.029 117.564 12.7346 116.952 11.5252C119.177 9.53134 120.615 6.65495 121.214 2.97449C121.266 2.65416 121.298 2.36652 121.304 2.05273H111.864V3.64782H119.364C118.822 6.31502 117.726 8.46577 116.12 10.0347V10.0412Z" fill="#343535"/>
<path d="M131.415 10.0412C130.802 9.00836 130.138 8.08661 129.442 7.28907L129.39 7.23023L128.12 8.21082L128.178 8.28273C129.913 10.2439 131.241 12.715 132.253 15.8267L132.279 15.9052L133.852 15.4541L133.827 15.3691C133.395 14.029 132.859 12.7346 132.247 11.5252C134.471 9.53134 135.909 6.65495 136.509 2.97449C136.561 2.65416 136.593 2.36652 136.599 2.05273H127.159V3.64782H134.658C134.117 6.31502 133.021 8.46577 131.415 10.0347V10.0412Z" fill="#343535"/>
<path d="M145.189 14.9375C146.865 14.9375 147.794 13.8524 147.955 11.7147C148.097 9.66199 148.103 5.54353 147.974 2.80443V2.71944L146.395 2.77828V2.86326C146.53 5.55007 146.524 9.60969 146.382 11.6036C146.291 12.826 145.892 13.4405 145.195 13.4405C144.55 13.4405 144.054 12.7803 143.712 11.4793C143.519 10.7472 143.422 9.93002 143.422 8.96251C143.422 7.995 143.519 7.16477 143.712 6.41298C144.228 4.36029 145.46 3.32087 147.368 3.32087C148.303 3.32087 149.064 3.58236 149.703 4.12495C150.341 4.66754 150.754 5.40625 150.966 6.39991C151.134 7.11901 151.218 7.93616 151.218 8.89713C151.218 10.0477 151.102 11.1133 150.87 12.0742C150.56 13.3817 150.006 14.5126 149.225 15.4344L149.167 15.5063L150.444 16.4084L150.496 16.3496C151.418 15.2317 152.05 13.9373 152.43 12.388C152.682 11.3748 152.804 10.1915 152.804 8.87752C152.804 7.8904 152.714 6.95557 152.527 6.0992C152.224 4.7656 151.618 3.7131 150.715 2.96786C149.793 2.21607 148.664 1.83691 147.375 1.83691C146.085 1.83691 144.944 2.20954 144.054 2.94825C143.138 3.69349 142.526 4.7133 142.184 6.07958C141.958 6.96865 141.849 7.9427 141.849 8.98212C141.849 10.0215 141.958 10.9629 142.184 11.8324C142.719 13.8851 143.732 14.9245 145.202 14.9245L145.189 14.9375Z" fill="#343535"/>
<path d="M164.275 11.5059V11.4209L162.753 11.4797V11.5647C162.817 12.748 163.353 13.637 164.346 14.1927C165.061 14.6045 166.112 14.8726 167.57 15.0098H167.654L167.808 13.6043H167.725C166.693 13.5128 165.919 13.3494 165.423 13.1271C164.694 12.7937 164.313 12.2642 164.281 11.5059H164.275Z" fill="#343535"/>
<path d="M165.236 5.35379V3.86984H161.503C161.561 2.94809 161.619 1.97404 161.67 0.928079V0.843095L160.097 0.764648V0.849633C160.032 1.9152 159.981 2.92848 159.923 3.86984H157.859V5.35379H159.787C159.439 9.72721 158.846 13.2573 158.04 15.833L158.014 15.918L159.549 16.3298L159.575 16.2514C160.406 13.5711 161.019 9.90371 161.393 5.36033H165.236V5.35379Z" fill="#343535"/>
<path d="M167.467 7.24316H163.637V8.67482H167.467V7.24316Z" fill="#343535"/>
<path d="M175.547 15.3233C176.166 15.3233 176.708 15.1337 177.191 14.748L177.494 15.2448L178.777 14.5454L178.732 14.4669C178.552 14.1662 178.365 13.8132 178.191 13.4406C178.752 12.4142 179.164 10.9368 179.409 9.04753C179.545 8.09963 179.661 6.59606 179.758 4.56952C181.015 5.26247 181.653 6.90985 181.653 9.47245C181.653 12.035 181.028 14.1466 179.796 15.4344L179.732 15.4998L180.86 16.4281L180.912 16.3692C182.395 14.8003 183.149 12.4796 183.149 9.46591C183.149 5.95541 182.034 3.79812 179.828 3.05288L179.945 0.934812L178.442 0.875977L178.345 2.80446L178.21 2.79139C177.61 2.77178 177.036 2.85022 176.45 3.03327L176.411 1.80426L174.928 1.82388V1.90886C174.947 2.54951 174.966 3.15094 174.986 3.72621C173.425 4.82447 172.639 6.83794 172.639 9.72087C172.639 13.434 173.612 15.3167 175.54 15.3167L175.547 15.3233ZM175.547 13.9308C174.605 13.9308 174.122 12.5188 174.122 9.7274C174.122 7.89698 174.451 6.52415 175.102 5.62855C175.34 8.9364 175.818 11.5317 176.527 13.336C176.263 13.7347 175.927 13.9374 175.547 13.9374V13.9308ZM176.533 4.50415C177.036 4.28842 177.597 4.19036 178.203 4.20343H178.274C178.178 6.2169 178.1 7.42629 178.042 7.90351C177.92 9.20442 177.713 10.355 177.43 11.329C176.998 9.67511 176.707 7.43937 176.533 4.49761V4.50415Z" fill="#343535"/>
<path d="M191.377 14.9375C193.054 14.9375 193.982 13.8524 194.144 11.7147C194.285 9.66199 194.292 5.7135 194.163 2.96786V2.88287L192.583 2.94171V3.02669C192.719 5.7135 192.712 9.60969 192.57 11.6036C192.48 12.826 192.08 13.4405 191.384 13.4405C190.739 13.4405 190.242 12.7803 189.901 11.4793C189.707 10.7472 189.61 9.93002 189.61 8.96251C189.61 7.995 189.707 7.16477 189.901 6.41298C190.417 4.36029 191.648 3.32087 193.557 3.32087C194.492 3.32087 195.253 3.58236 195.891 4.12495C196.529 4.66754 196.942 5.40625 197.155 6.39991C197.323 7.11901 197.406 7.93616 197.406 8.89713C197.406 10.0477 197.29 11.1133 197.058 12.0742C196.749 13.3817 196.194 14.5126 195.414 15.4344L195.356 15.5063L196.633 16.4084L196.684 16.3496C197.606 15.2317 198.238 13.9373 198.619 12.388C198.87 11.3748 198.993 10.1915 198.993 8.87752C198.993 7.8904 198.902 6.95557 198.715 6.0992C198.412 4.7656 197.806 3.7131 196.903 2.96786C195.981 2.21607 194.853 1.83691 193.563 1.83691C192.274 1.83691 191.132 2.20954 190.242 2.94825C189.327 3.69349 188.714 4.7133 188.372 6.07958C188.147 6.96865 188.037 7.9427 188.037 8.98212C188.037 10.0215 188.147 10.9629 188.372 11.8324C188.908 13.8851 189.92 14.9245 191.39 14.9245L191.377 14.9375Z" fill="#343535"/>
<path d="M204.944 7.59633L204.969 7.67478L206.407 7.26293L206.382 7.17795C206.143 6.44578 205.601 5.64823 204.776 4.80493L204.724 4.74609L203.615 5.67438L203.68 5.73975C204.363 6.45231 204.782 7.05374 204.95 7.58979L204.944 7.59633Z" fill="#343535"/>
<path d="M205.957 3.64749L205.976 3.72594L207.414 3.37293L207.388 3.28794C207.188 2.53616 206.679 1.71247 205.879 0.843015L205.828 0.78418L204.699 1.67324L204.757 1.73862C205.415 2.49694 205.802 3.12451 205.95 3.64095L205.957 3.64749Z" fill="#343535"/>
<path d="M204.937 16.3956C205.821 14.9508 206.517 12.7478 207.001 9.84526L207.014 9.76027L205.518 9.55762L205.505 9.6426C205.066 12.3294 204.428 14.3625 203.615 15.6896L203.57 15.768L204.892 16.4675L204.931 16.4021L204.937 16.3956Z" fill="#343535"/>
<path d="M212.405 7.79893H214.972V6.36727H212.405V4.23613H215.358V2.80448H213.605C214.075 2.0004 214.404 1.18978 214.591 0.392235L214.61 0.30725L213.114 0L213.095 0.0784469C212.889 1.00674 212.457 1.92195 211.805 2.80448H210.516L211.096 2.59529L211.064 2.5103C210.709 1.63431 210.219 0.83023 209.62 0.111133L209.568 0.0522979L208.394 0.960975L208.452 1.03288C208.872 1.52318 209.246 2.1246 209.562 2.81101H207.885V4.24267H210.838V6.37381H208.272V7.80547H210.838V9.917H207.434V11.3487H210.838V16.8073H212.399V11.3487H215.803V9.917H212.399V7.80547L212.405 7.79893Z" fill="#343535"/>
<path d="M223.882 15.3687H222.979V16.748H225.339V0.65332H220.942V7.9162C220.942 9.81853 220.897 11.1325 220.806 12.0543C220.632 13.6951 220.278 15.0222 219.742 16.0028L219.697 16.0812L221.006 16.7022L221.045 16.6303C221.799 15.2837 222.238 13.2114 222.367 10.4657H223.882V15.3687ZM223.882 6.15768V9.0929H222.406V6.15768H223.882ZM223.882 2.03268V4.78486H222.406V2.03268H223.882Z" fill="#343535"/>
<path d="M227.597 16.2193L228.596 16.775L228.642 16.7096C229.074 16.0297 229.441 15.3891 229.757 14.768C230.286 15.5329 230.828 16.1866 231.408 16.7619L231.466 16.8142L232.536 15.899L232.472 15.8336C231.717 15.0622 231.066 14.2058 230.473 13.2187C231.272 11.251 231.801 9.09372 232.027 6.79261V6.75338L232.072 6.04082H227.603V2.06618H230.466C230.479 3.439 230.305 3.8247 230.202 3.93583C230.163 3.97506 230.138 3.97506 230.118 3.97506C229.918 3.97506 229.622 3.90968 229.248 3.77894L229.17 3.75279L228.7 5.06677L228.783 5.09292C229.351 5.27597 229.834 5.37403 230.176 5.37403C230.834 5.37403 231.298 5.13215 231.543 4.65493C231.801 4.1581 231.924 3.19059 231.924 1.69356V0.693359H226.14V16.8011H227.603V16.2193H227.597ZM228.848 13.3037C228.5 14.1012 228.087 14.8792 227.597 15.6702V10.0351C227.887 11.1791 228.306 12.2774 228.848 13.3037ZM227.597 7.41365H230.473C230.312 8.80608 230.009 10.1527 229.583 11.4275C229.125 10.2704 228.364 8.44653 228.203 7.21099L227.597 7.40711V7.41365Z" fill="#343535"/>
<path d="M238.41 4.60245L238.436 4.68089L239.848 4.28866L239.822 4.20367C239.603 3.50419 238.99 2.59551 237.946 1.43188L237.894 1.37305L236.785 2.2425L236.843 2.30787C237.694 3.27538 238.236 4.06639 238.41 4.59591V4.60245Z" fill="#343535"/>
<path d="M248.792 17.2385V15.8591H248.708C245.542 15.8591 243.233 15.6042 241.841 15.0942C242.589 14.4013 243.208 13.5318 243.672 12.4924L243.711 12.414L242.563 11.9433H245.871L244.962 12.7866L245.026 12.852C245.851 13.6168 246.47 14.4405 246.928 15.3623L246.96 15.4342L248.231 14.9112L248.192 14.8262C247.715 13.8064 246.993 12.8324 246.064 11.9368H248.398V10.6162H246.58V9.05384H248.012V7.73331H246.58V6.5893H247.083C247.992 6.5893 248.495 5.90942 248.579 4.57583V4.49084L247.322 4.42547V4.51045C247.27 5.29492 247.141 5.37991 247.089 5.37991H245.858C245.819 5.37991 245.729 5.37991 245.729 5.20994V3.88942H248.153V0.614258H244.658V1.82365H246.87V2.67349H244.465V5.2034C244.465 5.77214 244.704 6.17091 245.187 6.42587V7.72678H243.614V6.36049C243.917 6.15784 244.123 5.88981 244.214 5.55641C244.284 5.33415 244.336 4.96806 244.355 4.56275V4.47777L243.098 4.4124V4.49738C243.046 5.30146 242.905 5.36683 242.866 5.36683H241.847C241.808 5.36683 241.718 5.36683 241.718 5.19686V3.87634H244.123V0.614258H240.628V1.82365H242.859V2.67349H240.435V5.2034C240.435 5.82444 240.751 6.55661 242.234 6.58276V7.72678H240.686V9.0473H242.234V10.6097H240.338V11.9302H242.434L242.421 11.9564C241.95 12.9696 241.389 13.728 240.719 14.2836L240.648 14.3425L240.912 14.617C240.499 14.3425 240.19 14.0156 239.996 13.6364V5.77868H236.656V7.13843H238.533V13.5122L236.282 15.578L237.327 16.5521L239.119 14.8981C239.951 15.9049 241.434 16.5847 243.536 16.9247C244.826 17.1339 246.567 17.2385 248.714 17.2385H248.798H248.792ZM245.181 9.06038V10.6228H243.607V9.06038H245.181Z" fill="#343535"/>
<path d="M263.623 4.42594L263.675 4.48477L264.597 3.83759L264.539 3.76568C264.062 3.15118 263.552 2.56936 262.985 1.98755L262.933 1.92871L262.082 2.64127L262.147 2.70664C262.695 3.29499 263.191 3.87027 263.63 4.4194L263.623 4.42594Z" fill="#343535"/>
<path d="M264.938 3.36667L264.99 3.4255L265.912 2.7587L265.854 2.68679C265.229 1.95462 264.751 1.41203 264.306 0.934812L264.255 0.875977L263.378 1.58854L263.442 1.65391C263.855 2.09844 264.397 2.69987 264.945 3.36667H264.938Z" fill="#343535"/>
<path d="M253.28 5.44555C253.789 5.42594 254.363 5.38018 255.034 5.30173C253.918 7.74012 253.351 9.87126 253.351 11.6429C253.351 12.7411 253.602 13.6825 254.086 14.4277C254.685 15.3364 255.556 15.8005 256.678 15.8005C257.8 15.8005 258.819 15.3495 259.618 14.4604C260.283 13.7152 260.753 12.7607 261.024 11.6298C261.108 11.3225 261.23 10.8322 261.359 10.172C261.682 10.9499 262.12 11.6494 262.675 12.3031L262.726 12.3619L263.919 11.4533L263.855 11.3814C262.739 10.1262 262.172 8.34808 262.172 6.09273C262.172 5.4194 262.211 4.62839 262.288 3.67396V3.58897L260.779 3.48438L260.766 3.56282C260.353 6.83798 259.921 9.4398 259.477 11.2898C259.264 12.1005 258.961 12.7542 258.554 13.3033C258.045 13.9701 257.407 14.31 256.665 14.31C256.04 14.31 255.575 14.0093 255.253 13.3883C255.021 12.9045 254.911 12.3293 254.911 11.6363C254.911 9.79281 255.633 7.46556 257.052 4.71991L257.078 4.66762L256.291 3.65434H256.246C254.937 3.8047 253.847 3.9093 253.177 3.94852H253.093L253.183 5.43901H253.267L253.28 5.44555Z" fill="#343535"/>
<path d="M61.9869 29.9668V35.177H80.1838C78.9006 40.8971 76.5406 45.5777 73.1617 49.1144C71.7624 46.8394 70.26 44.7867 68.6995 42.9955L68.1772 42.3941L64.0375 45.5908L64.65 46.2903C68.8285 51.0233 72.0462 56.9852 74.49 64.5292L74.7415 65.3137L79.8292 63.8624L79.5519 63.006C78.5331 59.8551 77.295 56.8087 75.87 53.9585C81.222 48.9967 84.6782 41.943 86.142 32.987C86.3032 31.8757 86.387 31.0128 86.4257 29.9733H61.9805L61.9869 29.9668Z" fill="#343535"/>
<path d="M29.0426 29.9668V35.177H47.2395C45.9563 40.8971 43.5962 45.5777 40.2174 49.1144C38.8181 46.8394 37.3157 44.7867 35.7552 42.9955L35.2329 42.3941L31.0931 45.5908L31.7057 46.2903C35.8842 51.0233 39.1018 56.9852 41.5457 64.5292L41.7972 65.3137L46.8848 63.8624L46.6076 63.006C45.5887 59.8551 44.3507 56.8087 42.9256 53.9585C48.2777 48.9967 51.7339 41.943 53.1976 32.987C53.3589 31.8757 53.4427 31.0128 53.4814 29.9733H29.0361L29.0426 29.9668Z" fill="#343535"/>
<path d="M118.209 48.415V40.178H122.136V35.3209H118.209V29.1562H113.102V35.3209H104.332V40.178H113.102V47.1402C112.876 47.1271 112.65 47.1206 112.418 47.1206C109.878 47.1206 107.827 47.9835 106.325 49.6832C104.938 51.226 104.235 53.2264 104.235 55.6255C104.235 59.8094 106.608 64.7973 111.264 64.7973C114.565 64.7973 116.706 63.2218 117.641 60.1101C117.957 59.0249 118.138 57.0507 118.189 54.2331C118.602 54.5665 119.021 54.9261 119.427 55.2856L120.008 55.8021L123.586 52.3962L122.909 51.7686C121.323 50.2912 119.743 49.1602 118.202 48.4084L118.209 48.415Z" fill="#343535"/>
<path d="M100.482 51.6968C100.482 49.4088 100.824 42.7931 101.585 30.2547L101.636 29.3852L96.5359 29.1172L96.4843 29.9736C95.8008 41.2765 95.4268 49.0035 95.4268 51.7426C95.4268 56.4559 95.9684 60.6463 97.0453 64.196L97.2838 64.9936L102.197 63.6469L101.927 62.784C100.953 59.718 100.482 56.0899 100.482 51.6968Z" fill="#343535"/>
<path d="M146.678 48.0027C149.057 43.6946 150.972 38.8048 152.372 33.4639C152.636 32.3329 152.784 31.2804 152.836 30.2148H131.976L132.189 35.5819H146.194C142.802 46.0611 137.147 54.4484 129.364 60.528L128.636 61.0968L132.124 65.0126L132.75 64.5288C136.96 61.2733 140.7 57.2463 143.866 52.5461C146.704 55.4747 149.109 59.0049 151.211 63.2868L151.566 64.0124L156.402 61.9532L155.989 61.1295C153.378 55.867 150.244 51.4543 146.671 47.9896L146.678 48.0027Z" fill="#343535"/>
<path d="M266.047 48.0027C268.426 43.6946 270.342 38.8048 271.741 33.4639C272.005 32.3329 272.154 31.2804 272.205 30.2148H251.345L251.558 35.5819H265.563C262.172 46.0611 256.517 54.4484 248.734 60.528L248.005 61.0968L251.493 65.0126L252.119 64.5288C256.33 61.2733 260.07 57.2463 263.236 52.5461C266.073 55.4747 268.478 59.0049 270.58 63.2868L270.935 64.0124L275.771 61.9532L275.358 61.1295C272.747 55.867 269.613 51.4543 266.041 47.9896L266.047 48.0027Z" fill="#343535"/>
<path d="M168.124 30.0124C167.222 35.4906 164.733 40.0078 160.516 43.8125L159.832 44.427L163.591 48.1336L164.185 47.6041C165.9 46.0613 167.402 44.3747 168.673 42.5574L165.758 44.8846C169.317 46.0025 173.38 48.0617 175.772 49.6307C173.496 54.9389 170.13 58.639 165.5 60.927L164.681 61.3323L167.26 65.8692L167.976 65.5162C178.751 60.1948 184.213 48.5324 184.213 30.8688V30.0059H168.124V30.0124ZM172.387 35.1768H178.783C178.616 38.5631 178.151 41.7402 177.41 44.6558C175.456 43.6425 169.446 41.3545 169.446 41.3545C170.672 39.413 171.645 37.3929 172.387 35.1768Z" fill="#343535"/>
<path d="M209.947 29.0383C205.982 35.6997 199.14 42.3219 189.603 48.7415L188.836 49.258L191.996 53.3437L192.653 52.9057C195.594 50.9315 198.45 48.8004 201.345 46.4208V65.0193H206.788V41.4656C210.031 38.1447 212.578 34.9153 214.571 31.5943L215.048 30.8033L210.367 28.3584L209.954 29.0513L209.947 29.0383Z" fill="#343535"/>
<path d="M242.234 30.0059H236.843C236.843 30.0059 236.836 32.5096 236.836 33.8628C236.836 40.0536 236.495 45.1004 235.65 48.8593C234.405 54.2721 232.058 58.6194 228.667 61.7834L227.977 62.424L231.878 65.9999L232.452 65.4704C236.443 61.7507 239.235 56.7628 240.751 50.657C241.782 46.2901 242.221 40.6877 242.221 34.0001C242.221 32.5423 242.227 30.0124 242.227 30.0124L242.234 30.0059Z" fill="#343535"/>
<path d="M227.486 30.0059H222.096V47.1727H227.486V30.0059Z" fill="#343535"/>
<path d="M289.261 40.2365V28.8486H283.773V64.8885H289.261V45.7866L300.784 50.8922L302.957 46.2965L289.261 40.2365Z" fill="#343535"/>
<path d="M114.882 56.214C112.457 56.7958 111.902 57.4103 111.393 60.1429C111.367 60.2671 111.193 60.2671 111.167 60.1429C110.658 57.4169 110.097 56.7958 107.679 56.214C107.563 56.1879 107.563 56.0179 107.679 55.9918C110.103 55.41 110.658 54.7954 111.167 52.0629C111.193 51.9387 111.367 51.9387 111.393 52.0629C111.902 54.7889 112.463 55.41 114.882 55.9918C114.998 56.0179 114.998 56.1879 114.882 56.214Z" fill="white"/>
</g>
<defs>
<clipPath id="clip0_2407_6726">
<rect width="332" height="66" fill="white"/>
</clipPath>
</defs>
</svg>
