<svg width="40" height="40" viewBox="0 0 40 40" fill="none" xmlns="http://www.w3.org/2000/svg">
<circle cx="20" cy="20" r="19.5" fill="#13A4A0" fill-opacity="0.26" stroke="#13A4A0"/>
<path d="M25.296 20.7959L17.796 28.2959C17.5846 28.5072 17.298 28.626 16.9991 28.626C16.7002 28.626 16.4136 28.5072 16.2022 28.2959C15.9909 28.0846 15.8721 27.7979 15.8721 27.499C15.8721 27.2001 15.9909 26.9135 16.2022 26.7021L22.9063 20L16.2041 13.2959C16.0994 13.1912 16.0164 13.067 15.9598 12.9303C15.9032 12.7936 15.874 12.647 15.874 12.499C15.874 12.351 15.9032 12.2045 15.9598 12.0678C16.0164 11.931 16.0994 11.8068 16.2041 11.7021C16.3087 11.5975 16.433 11.5145 16.5697 11.4579C16.7064 11.4012 16.853 11.3721 17.001 11.3721C17.149 11.3721 17.2955 11.4012 17.4322 11.4579C17.569 11.5145 17.6932 11.5975 17.7978 11.7021L25.2978 19.2021C25.4026 19.3068 25.4857 19.4311 25.5423 19.5679C25.5989 19.7047 25.628 19.8513 25.6278 19.9994C25.6276 20.1475 25.5982 20.2941 25.5413 20.4307C25.4843 20.5674 25.401 20.6915 25.296 20.7959Z" fill="#13A4A0"/>
</svg>
