<svg width="22" height="32" viewBox="0 0 22 32" fill="none" xmlns="http://www.w3.org/2000/svg">
<g id="Group 165">
<path id="Vector" d="M21.4462 22.3966C16.4242 21.1058 15.0331 19.5909 13.8955 13.9913C13.8012 13.5257 13.1352 13.5257 13.0409 13.9913C11.9033 19.5909 10.5122 21.1117 5.49022 22.3966C5.05404 22.5086 5.05404 23.1334 5.49022 23.2454C10.5122 24.5363 11.9033 26.0511 13.0409 31.6507C13.1352 32.1164 13.8012 32.1164 13.8955 31.6507C15.0331 26.0511 16.4242 24.5304 21.4462 23.2454C21.8824 23.1334 21.8824 22.5086 21.4462 22.3966Z" fill="#F8EE00"/>
<path id="Vector_2" d="M10.3829 5.411C7.47106 4.59168 6.4985 3.54839 5.7676 0.335977C5.6674 -0.111992 5.02492 -0.111992 4.92471 0.335977C4.19971 3.54839 3.22715 4.59168 0.309452 5.411C-0.103151 5.52888 -0.103151 6.12421 0.309452 6.2421C3.22125 7.06141 4.19382 8.10471 4.92471 11.3171C5.02492 11.7651 5.6674 11.7651 5.7676 11.3171C6.49261 8.10471 7.46517 7.06141 10.3829 6.2421C10.7955 6.12421 10.7955 5.52888 10.3829 5.411Z" fill="#F8EE00"/>
</g>
</svg>
